<?xml version="1.0" encoding="utf-8"?>
<!-- Generator: Adobe Illustrator 16.0.0, SVG Export Plug-In . SVG Version: 6.00 Build 0)  -->
<!DOCTYPE svg PUBLIC "-//W3C//DTD SVG 1.1//EN" "http://www.w3.org/Graphics/SVG/1.1/DTD/svg11.dtd">
<svg version="1.1" id="Layer_1" xmlns="http://www.w3.org/2000/svg" xmlns:xlink="http://www.w3.org/1999/xlink" x="0px" y="0px"
	 width="512px" height="512px" viewBox="0 0 512 512" enable-background="new 0 0 512 512" xml:space="preserve">
<path id="thumb-6-icon" fill="#9ADA44" d="M426.547,317.659c15.019-23.438,7.4-55.505-3.206-65.709
	c4.254-12.984,8.049-37.74-2.757-55.588c0,0-81.13-0.059-82.181,0c13.101-56.312,18.86-145.896-38.427-145.896
	c-31.705,0-39.473,28.578-48.244,56.697C215.463,223.442,129.099,224.6,77.039,230.42c0,41.252,0,133.077,0,179.348
	c79.606,0,119.613,6.578,188.043,35.681c71.917,30.586,161.004,21.397,151.177-61.134
	C435.389,365.415,434.831,335.417,426.547,317.659z M399.616,223.698c2.308,17.379-5.953,36.823-24.673,36.823H340.98
	c-12.973,0-17.507-10.606-17.507-19.198c0-7.316,6.367-17.625,18.107-17.625H399.616z M107.507,380.62c0-41.789,0-73.172,0-122.435
	c100.511-8.602,150.312-69.652,171.052-134.208c6.428-20.006,8.346-47.541,25.457-42.371c18.563,5.605,18.001,59.383,3.801,111.158
	c-6.063,22.105-22.153,40.672-8.478,67.227c-24.321,8.352-32.245,49.939-11.817,67.254c-16.217,15.859-15.724,47.547,3.992,62.713
	c-7.399,8.768-10.486,18.75-9.432,29.52C249.039,407.962,191.308,380.62,107.507,380.62z M355.1,432.024h-25.424
	c-12.493,0-18.085-8.201-18.085-16.58c0-9.816,6.344-18.57,18.085-18.57h56.688C385.311,410.313,379.33,432.024,355.1,432.024z
	 M373.952,375.441h-51.221c-12.494,0-18.087-10.801-18.087-18.561c0-7.766,5.593-18.572,18.087-18.572h78.477
	C403.418,356.831,394.54,375.441,373.952,375.441z M380.649,317.2h-57.918c-12.438,0-18.102-11.062-18.102-18.578
	c0-7.604,5.597-18.248,18.102-18.248H404.9C407.217,297.507,399.352,317.2,380.649,317.2z"/>
</svg>
