<?xml version="1.0" encoding="utf-8"?>
<!-- Generator: Adobe Illustrator 16.0.0, SVG Export Plug-In . SVG Version: 6.00 Build 0)  -->
<!DOCTYPE svg PUBLIC "-//W3C//DTD SVG 1.1//EN" "http://www.w3.org/Graphics/SVG/1.1/DTD/svg11.dtd">
<svg version="1.1" id="Layer_1" xmlns="http://www.w3.org/2000/svg" xmlns:xlink="http://www.w3.org/1999/xlink" x="0px" y="0px"
	 width="512px" height="512px" viewBox="0 0 512 512" enable-background="new 0 0 512 512" xml:space="preserve">
<path id="thumb-4-icon" fill="#ED5033" d="M271.279,387.914c-17.306-53.859-63.696-127.137-171.844-134.803
	c0-48.724,0-82.334,0-124.057c113.814-1.277,166.521-42.479,206.37-47.118c35.121-4.089,72.641,0.592,77.629,35.666l-16.098-5.4
	c-13.68-4.152-19.787,16.469-6.223,20.566l15.225,5.191c14.772,4.469,15.36,10.34,18.069,30.715l-19.089-6.25
	c-13.544-4.111-19.944,16.422-6.231,20.57l15.543,4.777c15.265,4.625,15.556,8.529,18.992,31.1l-20.255-5.973
	c-13.688-4.143-19.794,16.469-6.229,20.572l19.582,5.205c13.113,3.718,13.939,12.192,15.139,29.868
	c-52.403-6.541-98.463,12.154-118.087,26.352c19.603,58.492,24.727,129.205,3.164,135.72
	C279.691,435.826,277.758,408.072,271.279,387.914z M330.573,310.691c36.52-15.377,84.09-15.549,112.785-8.375
	c-7.347-69.175-22.035-151.505-32.011-189.046c-14.317-53.89-53.035-68.187-108.983-61.886
	c-60.227,6.781-78.781,48.671-233.723,48.671c0,84.333,0,127.666,0,180.666c52.274,4.059,141.274,9.725,175.604,124.141
	c8.531,28.435,16.667,57.14,48.62,57.14C352.07,462,344.462,367.053,330.573,310.691z"/>
</svg>
