<?xml version="1.0" encoding="utf-8"?>
<!-- Generator: Adobe Illustrator 16.0.0, SVG Export Plug-In . SVG Version: 6.00 Build 0)  -->
<!DOCTYPE svg PUBLIC "-//W3C//DTD SVG 1.1//EN" "http://www.w3.org/Graphics/SVG/1.1/DTD/svg11.dtd">
<svg version="1.1" id="Layer_1" xmlns="http://www.w3.org/2000/svg" xmlns:xlink="http://www.w3.org/1999/xlink" x="0px" y="0px"
	 width="500px" height="500px" viewBox="0 0 500 500" enable-background="new 0 0 500 500" xml:space="preserve">
<path fill="#FFFFFF" d="M278.549,266.463l87.759,162.416l31.347-31.341l-10.883-47.639l9.164-9.159
	c4.082-4.088,4.082-10.712,0-14.788c-4.048-4.046-10.567-4.074-14.658-0.115l-12.482-54.673l7.939-7.932
	c4.085-4.092,4.085-10.713,0-14.79c-3.644-3.652-9.314-4.032-13.396-1.164l-12.286-53.812l67.686-74.369
	c12.183-12.183,13.588-30.522,3.138-40.975c-10.444-10.45-28.794-9.041-40.983,3.143l-74.359,67.687l-53.813-12.301
	c2.868-4.076,2.489-9.737-1.165-13.391c-4.081-4.089-10.705-4.089-14.787,0l-7.939,7.947l-54.659-12.49
	c3.959-4.088,3.923-10.61-0.123-14.658c-4.084-4.075-10.699-4.075-14.79,0l-9.155,9.159l-47.634-10.875l-31.346,31.338
	l162.423,87.771L143.18,318.98c-0.502,0.495-0.982,1.02-1.448,1.543l-16.819-4.92c-10.197-2.983-20.866,2.868-23.85,13.056
	c-2.984,10.189,2.86,20.874,13.057,23.857l25.815,7.54l7.554,25.823c2.976,10.189,13.661,16.041,23.85,13.059
	c10.19-2.985,16.041-13.654,13.064-23.859l-4.921-16.813c0.525-0.465,1.041-0.946,1.535-1.441L278.549,266.463z"/>
</svg>
